<?xml version="1.0" encoding="UTF-8" standalone="no"?>
<!DOCTYPE svg PUBLIC "-//W3C//DTD SVG 1.1//EN" "http://www.w3.org/Graphics/SVG/1.1/DTD/svg11.dtd">
<svg width="100%" height="100%" viewBox="0 0 274 80" version="1.1" xmlns="http://www.w3.org/2000/svg" xmlns:xlink="http://www.w3.org/1999/xlink" xml:space="preserve" xmlns:serif="http://www.serif.com/" style="fill-rule:evenodd;clip-rule:evenodd;stroke-linejoin:round;stroke-miterlimit:2;">
    <g transform="matrix(1.37977,0,0,1.37977,-15.1564,138.945)">
        <path d="M50.088,-60.852C42.871,-52.734 32.722,-51.719 29.34,-59.274C30.806,-58.597 32.835,-58.372 34.752,-58.372C43.209,-58.372 52.907,-67.28 49.524,-74.046C46.818,-79.345 40.052,-82.277 32.497,-82.277C20.995,-82.277 11.523,-73.482 11.523,-62.657C11.523,-51.944 20.995,-43.149 32.497,-43.149C42.533,-43.149 50.99,-49.689 53.019,-58.484L53.245,-59.612C53.471,-61.529 51.779,-62.769 50.088,-60.852ZM32.497,-77.879C35.316,-77.879 35.993,-66.829 29.227,-62.657C28.889,-62.544 28.663,-62.431 28.55,-62.206C28.325,-63.22 28.212,-64.235 28.212,-65.476C28.212,-70.324 29.565,-77.879 32.497,-77.879Z" style="fill:rgb(250,250,250);fill-rule:nonzero;"/>
        <path d="M136.463,-50.253C131.614,-54.651 133.982,-82.277 116.278,-82.277C112.67,-82.277 107.145,-79.233 104.89,-72.58C104.89,-73.707 104.89,-74.948 105.002,-76.075L105.002,-96.034C105.002,-102.123 99.251,-100.093 95.981,-97.049C89.329,-90.847 78.503,-90.96 71.512,-96.823C61.138,-105.506 47.494,-90.058 58.094,-84.645C69.595,-78.781 87.637,-91.185 87.637,-85.547L87.637,-76.075C87.75,-73.707 87.75,-70.888 87.75,-67.844C87.75,-61.416 87.524,-52.283 85.269,-50.14C84.142,-49.125 83.014,-48.562 83.239,-47.096C83.69,-43.713 91.922,-43.149 96.32,-43.149C100.717,-43.149 109.4,-43.713 109.851,-47.096C109.964,-48.449 108.611,-48.787 107.596,-49.915C106.468,-51.155 105.679,-54.2 105.341,-58.259C103.875,-72.016 116.053,-83.856 116.053,-69.761L116.053,-54.2C116.053,-44.953 124.172,-43.149 128.569,-43.149C132.967,-43.149 138.605,-43.713 139.056,-47.096C139.282,-48.674 137.703,-49.125 136.463,-50.253ZM79.18,-78.669C80.759,-85.885 70.046,-80.36 66.213,-78.443C62.266,-76.413 56.402,-74.046 55.951,-70.663C55.726,-68.971 57.304,-68.069 58.432,-66.603C60.687,-63.559 60.236,-52.283 57.981,-50.14C56.853,-49.125 55.726,-48.562 55.951,-47.096C56.402,-43.713 64.521,-43.149 69.032,-43.149C73.429,-43.149 82.112,-43.713 82.563,-47.096C82.676,-48.449 81.322,-48.787 80.308,-49.915C75.233,-55.327 78.503,-75.399 79.18,-78.669Z" style="fill:rgb(250,250,250);fill-rule:nonzero;"/>
        <path d="M178.41,-60.852C171.193,-52.734 161.045,-51.719 157.662,-59.274C159.128,-58.597 161.157,-58.372 163.074,-58.372C171.531,-58.372 181.229,-67.28 177.846,-74.046C175.14,-79.345 168.374,-82.277 160.819,-82.277C149.317,-82.277 139.845,-73.482 139.845,-62.657C139.845,-51.944 149.317,-43.149 160.819,-43.149C170.855,-43.149 179.312,-49.689 181.341,-58.484L181.567,-59.612C181.793,-61.529 180.101,-62.769 178.41,-60.852ZM160.819,-77.879C163.638,-77.879 164.315,-66.829 157.549,-62.657C157.211,-62.544 156.985,-62.431 156.872,-62.206C156.647,-63.22 156.534,-64.235 156.534,-65.476C156.534,-70.324 157.887,-77.879 160.819,-77.879Z" style="fill:rgb(250,250,250);fill-rule:nonzero;"/>
        <path d="M194.309,-82.277C198.932,-82.277 202.653,-85.998 202.653,-90.621C202.653,-95.245 198.932,-98.966 194.309,-98.966C189.686,-98.966 185.965,-95.245 185.965,-90.621C185.965,-85.998 189.686,-82.277 194.309,-82.277ZM205.811,-78.669C207.502,-85.885 196.79,-80.36 192.843,-78.443C188.896,-76.413 183.033,-74.046 182.582,-70.663C182.356,-68.971 183.935,-68.069 185.063,-66.603C187.431,-63.559 186.98,-52.283 184.612,-50.14C183.597,-49.125 182.356,-48.562 182.582,-47.096C183.033,-43.713 191.264,-43.149 195.662,-43.149C200.06,-43.149 208.742,-43.713 209.193,-47.096C209.419,-48.449 208.066,-48.787 207.051,-49.915C201.864,-55.327 205.134,-75.399 205.811,-78.669Z" style="fill:rgb(250,250,250);fill-rule:nonzero;"/>
    </g>
</svg>
